<svg width="36" height="36" viewBox="0 0 36 36" fill="none" xmlns="http://www.w3.org/2000/svg">
<g clip-path="url(#clip0_82_219)">
<path d="M18 35.9998C27.9411 35.9998 36 27.9409 36 17.9998C36 8.05863 27.9411 -0.000244141 18 -0.000244141C8.05888 -0.000244141 0 8.05863 0 17.9998C0 27.9409 8.05888 35.9998 18 35.9998Z" fill="#007AB9"/>
<path d="M28.7548 19.4481V26.8691H24.4523V19.9455C24.4523 18.207 23.8311 17.0198 22.2733 17.0198C21.0844 17.0198 20.3782 17.8191 20.0663 18.593C19.9531 18.8696 19.9239 19.2537 19.9239 19.6416V26.8688H15.621C15.621 26.8688 15.6788 15.1424 15.621 13.9286H19.9242V15.7623C19.9155 15.7768 19.9033 15.7909 19.8956 15.8047H19.9242V15.7623C20.496 14.8825 21.5157 13.6247 23.8019 13.6247C26.6326 13.6247 28.7548 15.4742 28.7548 19.4481ZM11.1199 7.69092C9.6481 7.69092 8.68518 8.65705 8.68518 9.9264C8.68518 11.1688 9.62019 12.1628 11.0634 12.1628H11.0914C12.5921 12.1628 13.5251 11.1688 13.5251 9.9264C13.4966 8.65705 12.5921 7.69092 11.1199 7.69092ZM8.94091 26.8691H13.2421V13.9286H8.94091V26.8691Z" fill="#F1F2F2"/>
</g>
<defs>
<clipPath id="clip0_82_219">
<rect width="36" height="36" fill="white"/>
</clipPath>
</defs>
</svg>
