<svg width="469" height="469" viewBox="0 0 469 469" fill="none" xmlns="http://www.w3.org/2000/svg">
<path d="M40.5404 383.182H428.46" stroke="#263238" stroke-linecap="round" stroke-linejoin="round"/>
<path d="M277.535 314.324C268.878 314.324 243.889 308.696 243.889 308.696H311.182C311.182 308.696 286.184 314.324 277.535 314.324Z" fill="#263238" stroke="#263238" stroke-linecap="round" stroke-linejoin="round"/>
<path d="M285.246 311.5H269.825V322.072H285.246V311.5Z" fill="#858585" stroke="#263238" stroke-linecap="round" stroke-linejoin="round"/>
<path d="M287.525 322.072H267.546V367.518H287.525V322.072Z" fill="#999999" stroke="#263238" stroke-linecap="round" stroke-linejoin="round"/>
<path d="M315.065 295.198H302.036C303.481 286.25 304.55 277.132 305.206 268.099H318.188C317.569 277.132 316.509 286.25 315.065 295.198Z" fill="#858585" stroke="#263238" stroke-linecap="round" stroke-linejoin="round"/>
<path d="M334.791 188.05H278.811C272.245 188.05 267.921 193.613 269.197 200.16C272.771 220.161 274.909 240.392 275.594 260.698C275.587 262.084 275.857 263.456 276.385 264.737C276.914 266.017 277.692 267.18 278.673 268.158C279.655 269.135 280.821 269.908 282.104 270.431C283.387 270.954 284.761 271.216 286.146 271.204H333.271C336.2 271.175 339.022 270.1 341.229 268.174C343.435 266.247 344.881 263.596 345.306 260.698C347.578 240.604 348.399 220.372 347.763 200.16C347.454 193.613 341.366 188.05 334.791 188.05Z" fill="#858585" stroke="#263238" stroke-linecap="round" stroke-linejoin="round"/>
<path d="M337.84 200.16C338.475 220.372 337.654 240.604 335.382 260.698C334.957 263.596 333.511 266.247 331.305 268.174C329.098 270.1 326.276 271.175 323.347 271.204H286.146C284.761 271.216 283.387 270.954 282.104 270.431C280.821 269.908 279.655 269.135 278.674 268.158C277.692 267.18 276.914 266.017 276.385 264.737C275.857 263.456 275.588 262.084 275.594 260.698C274.913 240.392 272.778 220.161 269.206 200.16C267.93 193.594 272.236 188.05 278.821 188.05H324.867C331.442 188.05 337.53 193.613 337.84 200.16Z" fill="#999999" stroke="#263238" stroke-linecap="round" stroke-linejoin="round"/>
<path d="M311.182 375.678C311.182 375.928 311.126 376.174 311.018 376.4C310.91 376.625 310.754 376.823 310.559 376.98C310.365 377.136 310.138 377.247 309.895 377.304C309.652 377.362 309.399 377.364 309.155 377.311C303.03 375.979 284.692 372.114 277.535 372.114C270.379 372.114 252.031 375.979 245.906 377.311C245.663 377.364 245.41 377.362 245.168 377.305C244.925 377.247 244.699 377.136 244.505 376.98C244.311 376.823 244.156 376.624 244.049 376.399C243.942 376.174 243.888 375.928 243.889 375.678C243.889 374.676 244.232 373.703 244.862 372.923C245.492 372.143 246.37 371.602 247.351 371.392C254.517 369.853 270.866 366.505 277.535 366.505C284.205 366.505 300.554 369.853 307.72 371.392C308.7 371.604 309.578 372.145 310.207 372.924C310.837 373.704 311.181 374.676 311.182 375.678Z" fill="#263238" stroke="#263238" stroke-linecap="round" stroke-linejoin="round"/>
<path d="M243.88 372.302C242.74 372.3 241.625 372.636 240.677 373.268C239.728 373.9 238.989 374.8 238.552 375.853C238.114 376.905 238 378.064 238.222 379.182C238.443 380.3 238.992 381.327 239.798 382.133C240.604 382.939 241.631 383.488 242.749 383.71C243.867 383.932 245.026 383.817 246.079 383.38C247.132 382.943 248.031 382.203 248.663 381.255C249.295 380.306 249.632 379.191 249.63 378.052C249.627 376.527 249.021 375.066 247.943 373.988C246.865 372.911 245.404 372.304 243.88 372.302ZM243.88 381.175C243.262 381.177 242.657 380.995 242.142 380.653C241.627 380.311 241.225 379.824 240.988 379.253C240.75 378.683 240.687 378.055 240.806 377.448C240.925 376.841 241.222 376.284 241.659 375.846C242.095 375.408 242.652 375.11 243.258 374.989C243.864 374.867 244.493 374.929 245.064 375.165C245.635 375.401 246.123 375.801 246.467 376.315C246.811 376.829 246.994 377.433 246.994 378.052C246.994 378.878 246.666 379.671 246.083 380.257C245.499 380.842 244.707 381.173 243.88 381.175Z" fill="#858585" stroke="#263238" stroke-linecap="round" stroke-linejoin="round"/>
<path d="M277.535 372.302C276.394 372.298 275.276 372.634 274.326 373.266C273.375 373.899 272.634 374.8 272.197 375.855C271.759 376.91 271.645 378.071 271.869 379.19C272.093 380.31 272.645 381.338 273.454 382.143C274.264 382.949 275.294 383.496 276.415 383.714C277.536 383.932 278.696 383.813 279.749 383.37C280.802 382.928 281.699 382.182 282.327 381.228C282.955 380.275 283.285 379.156 283.276 378.014C283.264 376.498 282.654 375.048 281.579 373.979C280.505 372.909 279.052 372.307 277.535 372.302ZM277.535 381.175C276.919 381.177 276.316 380.996 275.802 380.656C275.287 380.315 274.886 379.83 274.647 379.262C274.408 378.694 274.343 378.067 274.459 377.462C274.575 376.856 274.868 376.299 275.301 375.859C275.734 375.42 276.287 375.119 276.891 374.993C277.494 374.868 278.122 374.924 278.693 375.154C279.265 375.385 279.756 375.779 280.104 376.288C280.453 376.797 280.642 377.398 280.65 378.014C280.655 378.427 280.578 378.836 280.424 379.219C280.269 379.601 280.041 379.95 279.751 380.244C279.462 380.538 279.117 380.771 278.737 380.931C278.356 381.091 277.948 381.174 277.535 381.175Z" fill="#858585" stroke="#263238" stroke-linecap="round" stroke-linejoin="round"/>
<path d="M310.478 372.302C309.339 372.302 308.225 372.64 307.277 373.273C306.33 373.906 305.592 374.806 305.156 375.859C304.721 376.912 304.607 378.071 304.83 379.188C305.053 380.305 305.603 381.332 306.409 382.137C307.215 382.942 308.242 383.49 309.36 383.711C310.478 383.932 311.636 383.817 312.689 383.379C313.741 382.942 314.64 382.202 315.271 381.254C315.903 380.305 316.239 379.191 316.237 378.052C316.237 377.296 316.088 376.547 315.799 375.849C315.509 375.151 315.085 374.516 314.55 373.982C314.015 373.448 313.38 373.025 312.681 372.737C311.983 372.448 311.234 372.3 310.478 372.302ZM310.478 381.175C309.86 381.175 309.256 380.992 308.743 380.649C308.229 380.306 307.829 379.818 307.592 379.247C307.356 378.676 307.294 378.048 307.415 377.442C307.535 376.836 307.833 376.28 308.269 375.843C308.706 375.406 309.263 375.109 309.869 374.988C310.475 374.868 311.103 374.929 311.673 375.166C312.244 375.402 312.732 375.803 313.075 376.316C313.418 376.83 313.602 377.434 313.602 378.052C313.602 378.88 313.273 379.674 312.687 380.26C312.101 380.846 311.306 381.175 310.478 381.175Z" fill="#858585" stroke="#263238" stroke-linecap="round" stroke-linejoin="round"/>
<path d="M294.588 293.378C272.13 294.091 249.65 293.097 227.343 290.405C226.313 290.219 225.255 290.265 224.246 290.54C223.236 290.814 222.3 291.311 221.507 291.993C220.714 292.675 220.082 293.525 219.659 294.482C219.236 295.439 219.031 296.478 219.06 297.524V298.622C219.115 300.926 219.972 303.139 221.484 304.879C222.997 306.619 225.069 307.777 227.343 308.152C249.651 310.839 272.13 311.833 294.588 311.125V293.378Z" fill="#999999" stroke="#263238" stroke-linecap="round" stroke-linejoin="round"/>
<path d="M329.857 307.861C315.918 309.606 302.102 310.759 288.069 311.36C287.261 311.385 286.456 311.247 285.702 310.954C284.948 310.661 284.261 310.218 283.682 309.653C283.103 309.089 282.645 308.413 282.333 307.666C282.021 306.92 281.864 306.118 281.869 305.31V299.916C281.886 298.268 282.541 296.691 283.698 295.517C284.854 294.343 286.422 293.663 288.069 293.622C302.139 293.012 315.918 291.859 329.857 290.114C330.621 289.971 331.406 290 332.157 290.201C332.907 290.401 333.603 290.767 334.194 291.272C334.784 291.777 335.254 292.408 335.568 293.118C335.882 293.828 336.034 294.6 336.01 295.376V300.77C335.965 302.482 335.327 304.124 334.204 305.418C333.082 306.711 331.545 307.575 329.857 307.861Z" fill="#858585" stroke="#263238" stroke-linecap="round" stroke-linejoin="round"/>
<path d="M236.535 380.828C236.535 377.695 235.851 371.448 232.155 363.334L227.343 345.981L212.335 352.388L216.556 365.679C216.556 365.679 203.659 371.833 198.894 373.493C195.723 374.6 186.231 376.776 186.7 380.847C186.7 381.134 186.756 381.418 186.866 381.683C186.976 381.948 187.137 382.189 187.34 382.392C187.543 382.595 187.784 382.756 188.049 382.866C188.314 382.976 188.598 383.032 188.885 383.032H234.341C234.63 383.034 234.917 382.977 235.184 382.867C235.452 382.756 235.695 382.594 235.899 382.389C236.103 382.184 236.264 381.94 236.374 381.672C236.483 381.404 236.538 381.117 236.535 380.828Z" fill="white" stroke="#263238" stroke-linecap="round" stroke-linejoin="round"/>
<path d="M228.272 370.669C225.927 372.395 213.423 374.581 216.556 372.076C219.689 369.572 216.556 365.67 216.556 365.67C216.556 365.67 203.659 371.823 198.894 373.483C195.723 374.59 186.231 376.766 186.7 380.837C186.7 381.124 186.756 381.409 186.866 381.674C186.976 381.939 187.137 382.18 187.34 382.383C187.543 382.586 187.784 382.747 188.049 382.857C188.314 382.966 188.598 383.023 188.885 383.023H234.341C234.629 383.024 234.916 382.968 235.183 382.857C235.45 382.747 235.692 382.584 235.895 382.379C236.099 382.174 236.259 381.93 236.368 381.662C236.476 381.394 236.53 381.108 236.526 380.819C236.373 376.067 235.402 371.377 233.656 366.955C231.076 366.983 230.617 368.953 228.272 370.669Z" fill="#6D0ABC" stroke="#263238" stroke-linecap="round" stroke-linejoin="round"/>
<path d="M247.388 383.023H280.687C281.02 383.023 281.343 382.906 281.599 382.694C281.856 382.482 282.031 382.187 282.094 381.86C282.601 379.215 282.488 373.296 279.486 365.436L279.186 349.49L262.133 352.388L264.291 365.989C264.291 365.989 257.425 373.549 254.16 374.9C251.872 375.838 246.656 375.95 245.962 381.466C245.944 381.664 245.967 381.864 246.031 382.052C246.094 382.24 246.196 382.413 246.331 382.56C246.465 382.707 246.628 382.824 246.81 382.903C246.992 382.983 247.189 383.024 247.388 383.023Z" fill="white" stroke="#263238" stroke-linecap="round" stroke-linejoin="round"/>
<path d="M273.896 370.735C270.379 373.193 267.78 373.484 269.422 369.797C271.063 366.111 264.328 365.98 264.328 365.98C264.328 365.98 257.462 373.54 254.198 374.891C251.909 375.829 246.694 375.941 246 381.457C245.976 381.657 245.995 381.861 246.056 382.054C246.117 382.247 246.218 382.425 246.353 382.576C246.488 382.727 246.653 382.847 246.838 382.929C247.023 383.011 247.223 383.053 247.426 383.051H280.725C281.058 383.051 281.38 382.934 281.637 382.722C281.894 382.51 282.069 382.215 282.132 381.888C282.638 379.243 282.526 373.324 279.524 365.464C276.916 366.064 277.385 368.268 273.896 370.735Z" fill="#6D0ABC" stroke="#263238" stroke-linecap="round" stroke-linejoin="round"/>
<path d="M244.077 261.242C244.077 261.242 240.719 264.676 226.996 266.87C213.273 269.065 184.786 275.932 185.133 287.188C185.48 298.444 211.716 358.476 211.716 358.476C211.716 358.476 224.848 355.98 230.945 352.228C230.945 352.228 220.374 309.39 212.448 298.134C212.448 298.134 248.026 293.754 267.705 285.63C287.384 277.507 275.81 258.991 275.81 258.991L244.077 261.242Z" fill="#263238" stroke="#263238" stroke-linecap="round" stroke-linejoin="round"/>
<path d="M266.392 259.657C266.392 259.657 271.439 268.099 267.668 272.789C263.897 277.479 242.482 286.231 244.903 296.868C247.323 307.505 255.314 322.503 260.52 358.147C260.52 358.147 272.649 356.271 280.772 352.829C280.772 352.829 282.122 316.566 272.695 300.929C272.695 300.929 299.691 295.93 302.43 286.859C305.169 277.789 300.048 263.925 299.944 258.972L266.392 259.657Z" fill="#263238" stroke="#263238" stroke-linecap="round" stroke-linejoin="round"/>
<path d="M250.165 273.089C249.54 273.042 248.913 273.042 248.289 273.089" stroke="#7F7F7F" stroke-width="0.75" stroke-linecap="round" stroke-linejoin="round"/>
<path d="M251.384 267.49C251.384 267.49 256.928 269.122 259.104 276.354C259.132 276.472 259.122 276.597 259.076 276.71C259.029 276.823 258.948 276.918 258.844 276.983C258.741 277.047 258.619 277.077 258.497 277.069C258.376 277.06 258.26 277.013 258.166 276.935C256.68 275.406 254.85 274.255 252.829 273.577" stroke="#7F7F7F" stroke-width="0.75" stroke-linecap="round" stroke-linejoin="round"/>
<path d="M209.84 297.74C209.84 294.692 196.708 293.05 200.225 290.236C203.743 287.422 211.716 296.568 211.716 296.568" stroke="#7F7F7F" stroke-width="0.75" stroke-linecap="round" stroke-linejoin="round"/>
<path d="M274.365 309.934C274.365 306.445 261.815 304.54 262.443 300.788C263.071 297.036 271.044 304.428 271.044 304.428" stroke="#7F7F7F" stroke-width="0.75" stroke-linecap="round" stroke-linejoin="round"/>
<path d="M210.328 358.691L211.707 361.88C211.783 362.057 211.918 362.201 212.089 362.289C212.261 362.376 212.457 362.401 212.645 362.359C215.674 361.674 228.319 358.691 232.755 355.502C232.884 355.408 232.982 355.277 233.035 355.126C233.089 354.976 233.096 354.812 233.056 354.658L232.193 351.103C232.164 350.98 232.106 350.866 232.026 350.769C231.945 350.672 231.843 350.595 231.728 350.544C231.612 350.493 231.487 350.469 231.361 350.475C231.234 350.481 231.112 350.516 231.001 350.577C229.003 351.666 223.441 354.264 210.881 357.566C210.767 357.597 210.66 357.652 210.568 357.727C210.477 357.803 210.402 357.897 210.35 358.003C210.297 358.11 210.268 358.226 210.265 358.345C210.261 358.463 210.282 358.582 210.328 358.691Z" fill="#999999" stroke="#263238" stroke-linecap="round" stroke-linejoin="round"/>
<path d="M259.029 356.065C259.013 355.955 259.026 355.843 259.066 355.739C259.106 355.635 259.172 355.544 259.258 355.473C259.343 355.402 259.446 355.355 259.555 355.335C259.665 355.316 259.777 355.325 259.882 355.361C261.406 355.837 263.036 355.86 264.572 355.427C268.052 354.639 278.004 351.487 280.969 350.54C281.066 350.509 281.169 350.501 281.27 350.518C281.37 350.534 281.466 350.574 281.548 350.635C281.631 350.695 281.697 350.774 281.743 350.865C281.789 350.956 281.813 351.057 281.813 351.159V355.305C281.814 355.431 281.778 355.553 281.71 355.659C281.641 355.764 281.543 355.846 281.428 355.896C279.102 356.937 266.636 362.274 260.117 360.821C259.99 360.791 259.875 360.723 259.787 360.625C259.7 360.528 259.645 360.406 259.629 360.277L259.029 356.065Z" fill="#999999" stroke="#263238" stroke-linecap="round" stroke-linejoin="round"/>
<path d="M269.065 269.206C268.975 270.503 268.501 271.743 267.705 272.77C264.948 276.194 252.819 281.775 247.388 288.716" stroke="#7F7F7F" stroke-linecap="round" stroke-linejoin="round"/>
<path d="M268.474 264.516C268.684 265.207 268.844 265.913 268.953 266.627" stroke="#7F7F7F" stroke-linecap="round" stroke-linejoin="round"/>
<path d="M196.642 375.594C197.408 376.989 197.961 378.491 198.284 380.049H232.155C232.281 378.574 232.949 377.197 234.031 376.185" stroke="#263238" stroke-linecap="round" stroke-linejoin="round"/>
<path d="M255.502 375.594C255.502 375.594 260.192 375.95 261.946 380.049H279.655C280.19 378.825 280.507 377.518 280.593 376.185" stroke="#263238" stroke-linecap="round" stroke-linejoin="round"/>
<path d="M227.737 208.236C228.169 209.887 228.619 211.528 229.069 213.132C233.759 230.016 239.856 262.143 239.856 262.143C269.872 268.474 301.529 262.143 301.529 262.143C301.698 255.145 300.845 245.906 299.897 236.198C304.812 234.838 308.339 230.298 308.564 222.747C308.799 213.601 307.139 197.14 306.219 189.448C305.403 182.685 305.985 178.661 295.508 173.502C290.255 170.472 281.531 169.037 270.81 167.602C249.705 164.788 234.472 169.056 229.069 171.354C224.782 170.228 223.591 175.256 223.591 175.256C221.218 173.464 218.46 181.062 218.46 181.062C211.519 189.917 206.06 204.831 204.24 210.14C203.838 211.301 203.1 212.316 202.12 213.057C197.196 216.809 199.935 221.452 199.935 221.452L210.018 224.539C210.018 224.539 214.905 225.814 218.638 219.389C221.753 214.024 226.855 204.916 227.737 208.236Z" fill="#6D0ABC"/>
<mask id="mask0_76_18" style="mask-type:luminance" maskUnits="userSpaceOnUse" x="199" y="166" width="110" height="99">
<path d="M227.737 208.236C228.169 209.887 228.619 211.528 229.069 213.132C233.759 230.016 239.856 262.143 239.856 262.143C269.872 268.474 301.529 262.143 301.529 262.143C301.698 255.145 300.845 245.906 299.897 236.198C304.812 234.838 308.339 230.298 308.564 222.747C308.799 213.601 307.139 197.14 306.219 189.448C305.403 182.685 305.985 178.661 295.508 173.502C290.255 170.472 281.531 169.037 270.81 167.602C249.705 164.788 234.472 169.056 229.069 171.354C224.782 170.228 223.591 175.256 223.591 175.256C221.218 173.464 218.46 181.062 218.46 181.062C211.519 189.917 206.06 204.831 204.24 210.14C203.838 211.301 203.1 212.316 202.12 213.057C197.196 216.809 199.935 221.452 199.935 221.452L210.018 224.539C210.018 224.539 214.905 225.814 218.638 219.389C221.753 214.024 226.855 204.916 227.737 208.236Z" fill="white"/>
</mask>
<g mask="url(#mask0_76_18)">
<path opacity="0.3" d="M211.875 220.308C211.875 220.308 211.641 215.618 207.889 214.802C204.137 213.986 208.94 212.579 211.875 213.283C214.811 213.986 214.127 211.407 216.641 207.186C219.154 202.965 220.393 199.625 222.512 202.055C224.632 204.484 226.837 204.869 227.737 208.189C228.638 211.51 224.182 219.445 224.182 219.445L217.185 224.876L213.63 226.865H208.33L206.51 222.278L211.875 220.308Z" fill="black"/>
</g>
<path d="M227.737 208.236C228.169 209.887 228.619 211.528 229.069 213.132C233.759 230.016 239.856 262.143 239.856 262.143C269.872 268.474 301.529 262.143 301.529 262.143C301.698 255.145 300.845 245.906 299.897 236.198C304.812 234.838 308.339 230.298 308.564 222.747C308.799 213.601 307.139 197.14 306.219 189.448C305.403 182.685 305.985 178.661 295.508 173.502C290.255 170.472 281.531 169.037 270.81 167.602C249.705 164.788 234.472 169.056 229.069 171.354C224.782 170.228 223.591 175.256 223.591 175.256C221.218 173.464 218.46 181.062 218.46 181.062C211.519 189.917 206.06 204.831 204.24 210.14C203.838 211.301 203.1 212.316 202.12 213.057C197.196 216.809 199.935 221.452 199.935 221.452L210.018 224.539C210.018 224.539 214.905 225.814 218.638 219.389C221.753 214.024 226.855 204.916 227.737 208.236Z" stroke="#263238" stroke-linecap="round" stroke-linejoin="round"/>
<path opacity="0.3" d="M301.53 262.096C301.553 256.069 301.256 250.044 300.638 244.049C301.661 258.335 271.917 262.809 270.979 255.061C270.041 247.313 299.897 236.151 283.651 240.053C269.478 243.458 242.004 240.203 235.25 239.321C237.849 251.515 239.856 262.096 239.856 262.096C269.872 268.427 301.53 262.096 301.53 262.096Z" fill="black"/>
<path opacity="0.3" d="M287.891 190.339C287.891 190.339 283.642 202.767 283.651 209.333C283.661 215.899 271.748 220.308 271.72 220.308C278.108 219.014 284.317 217.297 287.281 216.434C287.792 216.29 288.236 215.972 288.537 215.535C288.839 215.099 288.978 214.571 288.932 214.042C288.175 206.165 287.828 198.253 287.891 190.339Z" fill="black"/>
<path d="M223.807 187.215C223.847 193.072 224.904 198.877 226.93 204.371C226.989 204.533 226.995 204.708 226.947 204.873C226.899 205.038 226.8 205.183 226.664 205.287C226.528 205.392 226.363 205.45 226.191 205.454C226.02 205.458 225.852 205.408 225.711 205.309C224.098 204.156 221.818 201.811 219.764 197.083" stroke="#263238" stroke-width="0.75" stroke-linecap="round" stroke-linejoin="round"/>
<path d="M303.406 225.514C300.929 217.306 296.643 215.252 293.322 215.046C293.219 215.031 293.124 214.987 293.046 214.918C292.969 214.849 292.914 214.758 292.888 214.658C292.862 214.558 292.866 214.452 292.9 214.354C292.934 214.256 292.996 214.171 293.078 214.108C295.01 213.067 298.772 212.232 303.396 217.353" stroke="#263238" stroke-width="0.75" stroke-linecap="round" stroke-linejoin="round"/>
<path d="M255.821 202.027C255.781 202.372 255.615 202.69 255.356 202.921C255.097 203.152 254.761 203.28 254.414 203.28C254.066 203.28 253.731 203.152 253.472 202.921C253.212 202.69 253.047 202.372 253.007 202.027C252.984 201.828 253.003 201.627 253.063 201.437C253.124 201.246 253.223 201.071 253.356 200.922C253.489 200.772 253.652 200.653 253.834 200.571C254.017 200.49 254.214 200.447 254.414 200.447C254.614 200.447 254.811 200.49 254.993 200.571C255.176 200.653 255.338 200.772 255.471 200.922C255.604 201.071 255.704 201.246 255.764 201.437C255.824 201.627 255.844 201.828 255.821 202.027Z" fill="#999999" stroke="#263238" stroke-width="0.75" stroke-linecap="round" stroke-linejoin="round"/>
<path d="M257.725 217.991C257.725 218.27 257.642 218.542 257.488 218.773C257.333 219.004 257.113 219.185 256.856 219.291C256.599 219.398 256.316 219.425 256.043 219.371C255.77 219.317 255.52 219.183 255.323 218.986C255.126 218.789 254.992 218.539 254.938 218.266C254.884 217.993 254.911 217.71 255.018 217.453C255.124 217.196 255.305 216.976 255.536 216.821C255.768 216.667 256.04 216.584 256.318 216.584C256.691 216.584 257.049 216.732 257.313 216.996C257.577 217.26 257.725 217.618 257.725 217.991Z" fill="#999999" stroke="#263238" stroke-width="0.75" stroke-linecap="round" stroke-linejoin="round"/>
<path d="M262.443 256.468C262.445 256.749 262.363 257.023 262.209 257.257C262.054 257.492 261.834 257.675 261.575 257.783C261.317 257.892 261.032 257.921 260.756 257.868C260.481 257.814 260.228 257.68 260.029 257.482C259.83 257.285 259.694 257.032 259.638 256.757C259.583 256.482 259.61 256.197 259.717 255.938C259.824 255.678 260.006 255.456 260.239 255.3C260.472 255.144 260.746 255.061 261.027 255.061C261.401 255.061 261.76 255.209 262.025 255.473C262.29 255.736 262.441 256.094 262.443 256.468Z" fill="#999999" stroke="#263238" stroke-linecap="round" stroke-linejoin="round"/>
<path d="M235.504 228.45C235.504 228.45 230.898 232.84 233.093 232.915C235.288 232.99 238.055 229.97 240.597 229.622C243.139 229.275 239.031 227.746 239.031 227.746L235.504 228.45Z" fill="white" stroke="#263238" stroke-linecap="round" stroke-linejoin="round"/>
<path d="M262.396 223.507C262.19 223.322 261.948 223.181 261.684 223.094C261.421 223.007 261.143 222.975 260.867 223C258.616 223.188 252.144 223.676 249.705 223.525C245.371 223.253 232.605 220.552 232.605 220.552C232.312 220.502 232.01 220.518 231.724 220.599L223.816 222.925C223.528 223.009 223.265 223.16 223.047 223.366L218.263 227.756C218.106 227.903 217.973 228.074 217.869 228.262L216.875 230.082C216.67 230.456 216.592 230.887 216.655 231.308C216.718 231.73 216.917 232.12 217.222 232.418L225.12 232.624C225.608 232.647 226.086 232.479 226.452 232.155L228.797 230.148C228.953 230.012 229.089 229.854 229.2 229.679C229.773 228.741 232.014 225.645 235.485 225.927C235.485 225.927 227.981 229.913 229.397 231.555C230.814 233.196 236.554 228.506 238.43 228.975C240.306 229.444 240.428 234.05 250.624 232.38C251.08 232.303 251.547 232.326 251.994 232.446L261.28 235.044C261.555 235.12 261.843 235.141 262.126 235.105C262.41 235.068 262.683 234.976 262.93 234.833C263.178 234.689 263.394 234.498 263.566 234.27C263.739 234.043 263.864 233.783 263.934 233.506C264.657 230.842 265.295 226.152 262.396 223.507Z" fill="white" stroke="#263238" stroke-linecap="round" stroke-linejoin="round"/>
<path d="M233.712 222.231L231.724 222.569C230.754 222.733 229.848 223.161 229.107 223.807L226.996 225.617C226.637 225.94 226.321 226.309 226.058 226.715L224.698 228.788C224.55 229.017 224.384 229.233 224.201 229.435C223.394 230.373 221.171 232.971 223.572 232.615" fill="white"/>
<path d="M233.712 222.231L231.724 222.569C230.754 222.733 229.848 223.161 229.107 223.807L226.996 225.617C226.637 225.94 226.321 226.309 226.058 226.715L224.698 228.788C224.55 229.017 224.384 229.233 224.201 229.435C223.394 230.373 221.171 232.971 223.572 232.615" stroke="#263238" stroke-linecap="round" stroke-linejoin="round"/>
<path d="M228.112 222.935L226.058 223.497C225.416 223.654 224.827 223.978 224.351 224.435L222.747 225.974C222.589 226.114 222.448 226.271 222.325 226.443L219.689 229.941C219.689 229.941 218.282 232.418 219.689 232.465" fill="white"/>
<path d="M228.112 222.935L226.058 223.497C225.416 223.654 224.827 223.978 224.351 224.435L222.747 225.974C222.589 226.114 222.448 226.271 222.325 226.443L219.689 229.941C219.689 229.941 218.282 232.418 219.689 232.465" stroke="#263238" stroke-linecap="round" stroke-linejoin="round"/>
<path d="M287.966 188.35C287.767 196.925 288.08 205.505 288.904 214.042C288.95 214.571 288.811 215.099 288.509 215.535C288.208 215.972 287.764 216.29 287.253 216.434C279.795 218.639 272.2 220.347 264.516 221.546" stroke="#263238" stroke-linecap="round" stroke-linejoin="round"/>
<path d="M288.416 182.535C288.294 183.473 288.191 184.495 288.116 185.537" stroke="#263238" stroke-width="0.75" stroke-linecap="round" stroke-linejoin="round"/>
<path d="M291.559 173.755C290.489 174.693 289.683 176.391 289.129 178.642" stroke="#263238" stroke-width="0.75" stroke-linecap="round" stroke-linejoin="round"/>
<path d="M244.593 168.184C244.593 168.184 245.184 166.308 248.345 165.248C251.506 164.188 262.471 162.509 268.109 165.248C273.746 167.987 262.95 182.891 262.95 182.891L257.95 189.814L253.495 193.153L251.506 187.216L248.927 184.533C248.927 184.533 243.355 179.965 243.824 175.453C244.293 170.941 244.593 168.184 244.593 168.184Z" fill="white"/>
<path d="M272.273 167.79C271.392 164.704 267.368 163.841 267.368 163.841C248.139 160.558 244.077 167.593 244.077 167.593C241.719 173.947 241.719 180.936 244.077 187.291C244.077 187.291 249.546 185.021 250.484 187.291C251.422 189.561 253.138 194.401 253.138 194.401C255.748 192.929 258.026 190.933 259.826 188.538C262.799 184.627 269.778 188.538 269.778 188.538C274.299 180.725 272.273 167.79 272.273 167.79ZM267.583 167.564C260.136 190.939 253.57 191.952 253.57 191.952C251.384 183.36 249.508 185.236 246.535 179.862C244.152 175.547 244.959 170.088 245.371 168.09C245.42 167.851 245.521 167.627 245.667 167.432C245.813 167.237 246 167.077 246.216 166.964C253.607 163.212 262.649 164.591 266.373 165.407C266.604 165.455 266.821 165.551 267.012 165.688C267.203 165.826 267.363 166.003 267.48 166.206C267.598 166.41 267.672 166.636 267.696 166.87C267.72 167.104 267.694 167.341 267.621 167.564H267.583Z" fill="#6D0ABC"/>
<mask id="mask1_76_18" style="mask-type:luminance" maskUnits="userSpaceOnUse" x="242" y="162" width="31" height="33">
<path d="M272.273 167.79C271.392 164.704 267.368 163.841 267.368 163.841C248.139 160.558 244.077 167.593 244.077 167.593C241.719 173.947 241.719 180.936 244.077 187.291C244.077 187.291 249.546 185.021 250.484 187.291C251.422 189.561 253.138 194.401 253.138 194.401C255.748 192.929 258.026 190.933 259.826 188.538C262.799 184.627 269.778 188.538 269.778 188.538C274.299 180.725 272.273 167.79 272.273 167.79ZM267.583 167.564C260.136 190.939 253.57 191.952 253.57 191.952C251.384 183.36 249.508 185.236 246.535 179.862C244.152 175.547 244.959 170.088 245.371 168.09C245.42 167.851 245.521 167.627 245.667 167.432C245.813 167.237 246 167.077 246.216 166.964C253.607 163.212 262.649 164.591 266.373 165.407C266.604 165.455 266.821 165.551 267.012 165.688C267.203 165.826 267.363 166.003 267.48 166.206C267.598 166.41 267.672 166.636 267.696 166.87C267.72 167.104 267.694 167.341 267.621 167.564H267.583Z" fill="white"/>
</mask>
<g mask="url(#mask1_76_18)">
<path opacity="0.4" d="M272.273 167.79C271.392 164.704 267.368 163.841 267.368 163.841C248.139 160.558 244.077 167.593 244.077 167.593C241.719 173.947 241.719 180.936 244.077 187.291C244.077 187.291 249.546 185.021 250.484 187.291C251.422 189.561 253.138 194.401 253.138 194.401C255.748 192.929 258.026 190.933 259.826 188.538C262.799 184.627 269.778 188.538 269.778 188.538C274.299 180.725 272.273 167.79 272.273 167.79ZM267.583 167.564C260.136 190.939 253.57 191.952 253.57 191.952C251.384 183.36 249.508 185.236 246.535 179.862C244.152 175.547 244.959 170.088 245.371 168.09C245.42 167.851 245.521 167.627 245.667 167.432C245.813 167.237 246 167.077 246.216 166.964C253.607 163.212 262.649 164.591 266.373 165.407C266.604 165.455 266.821 165.551 267.012 165.688C267.203 165.826 267.363 166.003 267.48 166.206C267.598 166.41 267.672 166.636 267.696 166.87C267.72 167.104 267.694 167.341 267.621 167.564H267.583Z" fill="white"/>
</g>
<path d="M272.273 167.79C271.392 164.704 267.368 163.841 267.368 163.841C248.139 160.558 244.077 167.593 244.077 167.593C241.719 173.947 241.719 180.936 244.077 187.291C244.077 187.291 249.546 185.021 250.484 187.291C251.422 189.561 253.138 194.401 253.138 194.401C255.748 192.929 258.026 190.933 259.826 188.538C262.799 184.627 269.778 188.538 269.778 188.538C274.299 180.725 272.273 167.79 272.273 167.79ZM267.583 167.564C260.136 190.939 253.57 191.952 253.57 191.952C251.384 183.36 249.508 185.236 246.535 179.862C244.152 175.547 244.959 170.088 245.371 168.09C245.42 167.851 245.521 167.627 245.667 167.432C245.813 167.237 246 167.077 246.216 166.964C253.607 163.212 262.649 164.591 266.373 165.407C266.604 165.455 266.821 165.551 267.012 165.688C267.203 165.826 267.363 166.003 267.48 166.206C267.598 166.41 267.672 166.636 267.696 166.87C267.72 167.104 267.694 167.341 267.621 167.564H267.583Z" stroke="#263238" stroke-linecap="round" stroke-linejoin="round"/>
<path d="M240.878 132.07C240.878 132.07 224.304 135.391 233.431 146.14C243.552 158.119 240.878 132.07 240.878 132.07Z" fill="#263238" stroke="#263238" stroke-linecap="round" stroke-linejoin="round"/>
<path d="M234.341 158.372C234.341 158.372 230.401 142.426 237.905 134.762C245.409 127.099 253.541 125.542 259.638 129.294C265.735 133.046 268.268 142.426 267.33 147.266C266.392 152.106 266.842 169.459 258.485 176.654C250.127 183.848 244.987 182.075 239.462 172.273C235.794 165.848 234.059 164 234.341 158.372Z" fill="white" stroke="#263238" stroke-linecap="round" stroke-linejoin="round"/>
<path d="M263.39 155.248C263.39 155.248 257.087 148.992 255.155 141.647C253.223 134.303 252.134 133.046 244.94 136.639C237.746 140.231 226.527 135.4 229.463 126.321C232.549 116.79 241.976 129.135 251.037 126.011C260.098 122.887 266.542 128.515 266.552 136.798C266.552 136.798 272.029 142.116 266.552 155.868L263.39 155.248Z" fill="#263238" stroke="#263238" stroke-linecap="round" stroke-linejoin="round"/>
<path d="M261.411 154.198C261.411 154.198 263.006 145.456 267.433 146.262C271.861 147.069 268.7 159.976 263.484 158.569" fill="white"/>
<path d="M261.411 154.198C261.411 154.198 263.006 145.456 267.433 146.262C271.861 147.069 268.7 159.976 263.484 158.569" stroke="#263238" stroke-linecap="round" stroke-linejoin="round"/>
<path d="M240.334 157.162C240.334 157.162 238.59 165.276 239.162 166.664C239.734 168.052 245.09 166.992 245.09 166.992" fill="white"/>
<path d="M240.334 157.162C240.334 157.162 238.59 165.276 239.162 166.664C239.734 168.052 245.09 166.992 245.09 166.992" stroke="#263238" stroke-linecap="round" stroke-linejoin="round"/>
<path d="M245.84 170.529C245.84 170.529 250.043 172.189 253.748 166.664L245.84 170.529Z" fill="white"/>
<path d="M245.84 170.529C245.84 170.529 250.043 172.189 253.748 166.664" stroke="#263238" stroke-linecap="round" stroke-linejoin="round"/>
<path d="M237.455 157.837C237.605 158.588 237.408 159.272 237.014 159.357C236.62 159.441 236.16 158.897 236.001 158.137C235.841 157.378 236.001 156.702 236.442 156.618C236.883 156.533 237.314 157.078 237.455 157.837Z" fill="#263238"/>
<path d="M247.735 157.012C247.895 157.762 247.735 158.447 247.294 158.531C246.854 158.616 246.45 158.062 246.291 157.312C246.131 156.562 246.291 155.877 246.732 155.792C247.172 155.708 247.632 156.252 247.735 157.012Z" fill="#263238"/>
<path d="M239.612 157.481C239.828 159.61 237.736 161.561 234.847 161.843C231.958 162.124 229.519 160.642 229.304 158.513C229.088 156.383 231.33 155.455 234.181 155.164C237.033 154.873 239.406 155.361 239.612 157.481Z" stroke="#263238" stroke-linecap="round" stroke-linejoin="round"/>
<path d="M252.885 156.158C253.101 158.278 250.962 160.239 248.12 160.52C245.278 160.801 242.792 159.31 242.576 157.19C242.36 155.07 244.602 154.123 247.454 153.841C250.305 153.56 252.678 154.029 252.885 156.158Z" stroke="#263238" stroke-linecap="round" stroke-linejoin="round"/>
<path d="M239.612 157.481L242.576 157.19" stroke="#263238" stroke-linecap="round" stroke-linejoin="round"/>
<path d="M252.528 155.089L263.428 148.664" stroke="#263238" stroke-linecap="round" stroke-linejoin="round"/>
<path d="M265.295 165.097L265.81 166.345" stroke="#263238" stroke-linecap="round" stroke-linejoin="round"/>
<path d="M233.468 154.057C233.468 154.057 235.129 151.947 237.164 152.96L233.468 154.057Z" fill="white"/>
<path d="M233.468 154.057C233.468 154.057 235.129 151.947 237.164 152.96" stroke="#263238" stroke-linecap="round" stroke-linejoin="round"/>
<path d="M250.446 153.11C250.446 153.11 247.529 150.296 244.715 152.284L250.446 153.11Z" fill="white"/>
<path d="M250.446 153.11C250.446 153.11 247.529 150.296 244.715 152.284" stroke="#263238" stroke-linecap="round" stroke-linejoin="round"/>
<path d="M237.155 127.38C241.591 128.787 249.058 130.513 255.155 128.666C264.535 125.852 261.317 136.357 263.428 139.256" stroke="#7F7F7F" stroke-linecap="round" stroke-linejoin="round"/>
<path d="M233.309 125.974C233.309 125.974 234.05 126.302 235.316 126.752" stroke="#7F7F7F" stroke-linecap="round" stroke-linejoin="round"/>
<path d="M244.518 132.605C245.015 132.455 245.531 132.277 246.075 132.07" stroke="#7F7F7F" stroke-linecap="round" stroke-linejoin="round"/>
<path d="M234.341 131.367C234.341 131.367 236.329 134.434 242.726 133.074" stroke="#7F7F7F" stroke-linecap="round" stroke-linejoin="round"/>
<path d="M258.166 137.38C258.661 141 260.025 144.447 262.143 147.425" stroke="#7F7F7F" stroke-linecap="round" stroke-linejoin="round"/>
<path d="M257.95 134.059C257.937 134.619 257.956 135.18 258.006 135.738" stroke="#7F7F7F" stroke-linecap="round" stroke-linejoin="round"/>
<path opacity="0.3" d="M266.261 234.688C266.09 234.831 265.966 235.023 265.908 235.239C265.85 235.454 265.859 235.682 265.935 235.892C266.011 236.102 266.149 236.283 266.332 236.412C266.514 236.54 266.732 236.61 266.955 236.611C273.296 236.611 290.405 236.686 296.971 236.301C305.178 235.832 298.913 226.921 292.281 230.317C286.268 233.459 273.474 228.225 266.261 234.688Z" fill="black"/>
<path d="M194.832 225.889C194.832 225.889 198.668 215.674 208.292 217.297C217.916 218.92 210.562 226.977 205.929 227.69C205.929 227.69 205.225 224.886 194.832 225.889Z" fill="white" stroke="#263238" stroke-linecap="round" stroke-linejoin="round"/>
<path d="M186.662 231.686C185.396 232.952 182.347 233.065 184.401 230.317C186.082 228.106 188.36 226.423 190.967 225.467C195.526 223.432 197.308 223.844 201.436 222.934C205.563 222.025 206.341 223.713 207.767 224.492C211.172 226.368 211.988 226.686 212.851 228.562C213.714 230.438 214.652 232.877 211.988 232.877C209.568 232.877 209.409 228.872 207.064 229.031C204.719 229.191 203.546 232.877 201.905 232.877H201.285C199.878 232.877 199.803 231.705 200.657 229.866C201.511 228.028 202.458 226.368 202.458 226.368C201.065 227.101 199.952 228.271 199.288 229.697C198.162 232.089 197.956 233.093 195.883 233.093C193.81 233.093 194.007 231.555 196.014 228.159C194.822 228.873 193.836 229.885 193.153 231.095C192.14 232.971 191.605 232.877 190.283 232.877C188.538 232.877 188.66 230.007 191.746 228.131C191.765 228.131 191.08 227.287 186.662 231.686Z" fill="white" stroke="#263238" stroke-linecap="round" stroke-linejoin="round"/>
<path d="M198.743 224.829C198.743 224.829 197.533 224.773 196.764 226.818L198.743 224.829Z" fill="white"/>
<path d="M198.743 224.829C198.743 224.829 197.533 224.773 196.764 226.818" stroke="#263238" stroke-width="0.75" stroke-linecap="round" stroke-linejoin="round"/>
<path d="M352.876 136.517C358.933 141.276 364.699 146.394 370.144 151.844" stroke="#263238" stroke-width="0.75" stroke-linecap="round" stroke-linejoin="round"/>
<path d="M346.328 131.592C347.473 132.417 348.617 133.252 349.743 134.106" stroke="#263238" stroke-width="0.75" stroke-linecap="round" stroke-linejoin="round"/>
<path d="M339.791 127.099C340.966 127.868 342.136 128.656 343.299 129.463" stroke="#263238" stroke-width="0.75" stroke-linecap="round" stroke-linejoin="round"/>
<path d="M291.802 104.399C307.335 109.231 322.183 116.037 335.982 124.651" stroke="#263238" stroke-width="0.75" stroke-linecap="round" stroke-linejoin="round"/>
<path d="M281.559 101.51C283.435 101.992 285.327 102.498 287.234 103.03" stroke="#263238" stroke-width="0.75" stroke-linecap="round" stroke-linejoin="round"/>
<path d="M271.016 99.1748C273.08 99.5688 275.137 100 277.188 100.469" stroke="#263238" stroke-width="0.75" stroke-linecap="round" stroke-linejoin="round"/>
<path d="M261.627 97.6083C263.409 97.8647 265.185 98.1398 266.955 98.4337" stroke="#263238" stroke-width="0.75" stroke-linecap="round" stroke-linejoin="round"/>
<path d="M205.056 97.9835C222.441 95.2758 240.114 94.9602 257.584 97.0455" stroke="#263238" stroke-width="0.75" stroke-linecap="round" stroke-linejoin="round"/>
<path d="M197.318 99.3436C198.912 99.0341 200.516 98.7339 202.111 98.4619" stroke="#263238" stroke-width="0.75" stroke-linecap="round" stroke-linejoin="round"/>
<path d="M189.804 100.985C191.408 100.6 193.003 100.244 194.616 99.9064" stroke="#263238" stroke-width="0.75" stroke-linecap="round" stroke-linejoin="round"/>
<path d="M180.574 103.443C182.206 102.964 183.839 102.505 185.48 102.073" stroke="#263238" stroke-width="0.75" stroke-linecap="round" stroke-linejoin="round"/>
<path d="M124.754 130.279C140.285 119.391 157.358 110.89 175.406 105.056" stroke="#263238" stroke-width="0.75" stroke-linecap="round" stroke-linejoin="round"/>
<path d="M117.25 135.841C118.713 134.709 120.192 133.596 121.687 132.502" stroke="#263238" stroke-width="0.75" stroke-linecap="round" stroke-linejoin="round"/>
<path d="M109.652 142.032C111.256 140.644 112.888 139.293 114.53 137.97" stroke="#263238" stroke-width="0.75" stroke-linecap="round" stroke-linejoin="round"/>
<path d="M99.0903 151.844C101.292 149.642 103.53 147.507 105.806 145.437" stroke="#263238" stroke-width="0.75" stroke-linecap="round" stroke-linejoin="round"/>
<path d="M171.823 123.005C174.812 110.467 167.071 97.8803 154.534 94.8912C141.996 91.902 129.409 99.6424 126.42 112.18C123.431 124.717 131.172 137.304 143.709 140.293C156.247 143.283 168.833 135.542 171.823 123.005Z" fill="#6D0ABC"/>
<mask id="mask2_76_18" style="mask-type:luminance" maskUnits="userSpaceOnUse" x="125" y="94" width="48" height="47">
<path d="M171.823 123.005C174.812 110.467 167.071 97.8803 154.534 94.8912C141.996 91.902 129.409 99.6424 126.42 112.18C123.431 124.717 131.172 137.304 143.709 140.293C156.247 143.283 168.833 135.542 171.823 123.005Z" fill="white"/>
</mask>
<g mask="url(#mask2_76_18)">
<path opacity="0.3" d="M171.823 123.005C174.812 110.467 167.071 97.8803 154.534 94.8912C141.996 91.902 129.409 99.6424 126.42 112.18C123.431 124.717 131.172 137.304 143.709 140.293C156.247 143.283 168.833 135.542 171.823 123.005Z" fill="white"/>
</g>
<path d="M171.823 123.005C174.812 110.467 167.071 97.8803 154.534 94.8912C141.996 91.902 129.409 99.6424 126.42 112.18C123.431 124.717 131.172 137.304 143.709 140.293C156.247 143.283 168.833 135.542 171.823 123.005Z" stroke="#263238" stroke-width="0.75" stroke-linecap="round" stroke-linejoin="round"/>
<path d="M137.886 126.752V120.908C137.886 119.445 137.473 119.032 135.888 119.032V116.171C137.473 116.171 137.886 115.73 137.886 114.295V108.452C137.844 107.978 137.907 107.501 138.07 107.054C138.232 106.607 138.491 106.202 138.827 105.866C139.163 105.529 139.569 105.271 140.016 105.108C140.462 104.946 140.939 104.883 141.413 104.925H143.195V107.739H142.679C141.572 107.739 141 108.245 141 109.999V114.755C141.064 115.378 140.903 116.004 140.547 116.519C140.192 117.035 139.664 117.407 139.059 117.569V117.635C139.664 117.796 140.192 118.168 140.547 118.684C140.903 119.2 141.064 119.825 141 120.449V125.214C141 126.958 141.572 127.465 142.679 127.465H143.195V130.279H141.413C140.939 130.32 140.462 130.258 140.016 130.095C139.569 129.933 139.163 129.674 138.827 129.338C138.491 129.002 138.232 128.596 138.07 128.149C137.907 127.703 137.844 127.226 137.886 126.752Z" fill="white" stroke="#263238" stroke-width="0.75" stroke-linecap="round" stroke-linejoin="round"/>
<path d="M154.986 127.418H155.492C156.608 127.418 157.181 126.911 157.181 125.167V120.402C157.119 119.78 157.278 119.156 157.632 118.641C157.986 118.126 158.51 117.753 159.113 117.588V117.522C158.509 117.358 157.984 116.986 157.63 116.47C157.276 115.955 157.117 115.33 157.181 114.708V109.952C157.181 108.198 156.608 107.692 155.492 107.692H154.986V104.878H156.768C157.242 104.836 157.718 104.899 158.165 105.062C158.612 105.224 159.018 105.483 159.354 105.819C159.69 106.155 159.949 106.561 160.111 107.007C160.274 107.454 160.336 107.931 160.295 108.405V114.248C160.295 115.712 160.708 116.124 162.293 116.124V118.985C160.708 118.985 160.295 119.426 160.295 120.861V126.705C160.336 127.179 160.274 127.656 160.111 128.102C159.949 128.549 159.69 128.955 159.354 129.291C159.018 129.627 158.612 129.886 158.165 130.048C157.718 130.211 157.242 130.274 156.768 130.232H154.986V127.418Z" fill="white" stroke="#263238" stroke-width="0.75" stroke-linecap="round" stroke-linejoin="round"/>
<path d="M103.893 147.369H90.4326C84.2368 147.369 79.2141 152.392 79.2141 158.588V172.048C79.2141 178.244 84.2368 183.267 90.4326 183.267H103.893C110.089 183.267 115.111 178.244 115.111 172.048V158.588C115.111 152.392 110.089 147.369 103.893 147.369Z" fill="#6D0ABC" stroke="#263238" stroke-width="0.75" stroke-linecap="round" stroke-linejoin="round"/>
<path d="M84.1479 166.186V164.45L91.3237 161.355V163.231L86.3804 165.323L91.3237 167.405V169.281L84.1479 166.186Z" fill="white" stroke="#263238" stroke-width="0.75" stroke-linecap="round" stroke-linejoin="round"/>
<path d="M99.278 157.115H101.51L95.0382 173.53H92.8058L99.278 157.115Z" fill="white" stroke="#263238" stroke-width="0.75" stroke-linecap="round" stroke-linejoin="round"/>
<path d="M102.992 167.405L107.936 165.323L102.992 163.212V161.336L110.168 164.431V166.167L102.992 169.262V167.405Z" fill="white" stroke="#263238" stroke-width="0.75" stroke-linecap="round" stroke-linejoin="round"/>
<path d="M334.053 116.828C336.557 106.119 329.905 95.4074 319.196 92.9035C308.487 90.3996 297.775 97.0513 295.271 107.76C292.767 118.47 299.419 129.181 310.128 131.685C320.837 134.189 331.549 127.537 334.053 116.828Z" fill="#6D0ABC"/>
<mask id="mask3_76_18" style="mask-type:luminance" maskUnits="userSpaceOnUse" x="294" y="92" width="41" height="41">
<path d="M334.053 116.828C336.557 106.119 329.905 95.4073 319.196 92.9034C308.487 90.3994 297.775 97.0511 295.271 107.76C292.767 118.47 299.419 129.181 310.128 131.685C320.837 134.189 331.549 127.537 334.053 116.828Z" fill="white"/>
</mask>
<g mask="url(#mask3_76_18)">
<path opacity="0.2" d="M334.053 116.828C336.557 106.119 329.905 95.4073 319.196 92.9034C308.487 90.3994 297.775 97.0511 295.271 107.76C292.767 118.47 299.419 129.181 310.128 131.685C320.837 134.189 331.549 127.537 334.053 116.828Z" fill="black"/>
</g>
<path d="M334.053 116.828C336.557 106.119 329.905 95.4074 319.196 92.9035C308.487 90.3996 297.775 97.0513 295.271 107.76C292.767 118.47 299.419 129.181 310.128 131.685C320.837 134.189 331.549 127.537 334.053 116.828Z" stroke="#263238" stroke-width="0.75" stroke-linecap="round" stroke-linejoin="round"/>
<path d="M302.346 116.425V108.17C302.346 105.797 303.574 104.418 305.901 104.418C308.227 104.418 309.456 105.816 309.456 108.17V109.793H307.176V108.02C307.176 107.007 306.689 106.594 305.966 106.594C305.244 106.594 304.766 107.007 304.766 108.02V116.593C304.766 117.606 305.244 118 305.966 118C306.689 118 307.176 117.606 307.176 116.593V114.248H309.456V116.425C309.456 118.788 308.227 120.177 305.901 120.177C303.574 120.177 302.346 118.788 302.346 116.425Z" fill="white" stroke="#263238" stroke-width="0.75" stroke-linecap="round" stroke-linejoin="round"/>
<path d="M313.545 113.151H310.6V111.434H313.545V108.48H315.252V111.434H318.198V113.151H315.252V116.153H313.545V113.151Z" fill="white" stroke="#263238" stroke-width="0.75" stroke-linecap="round" stroke-linejoin="round"/>
<path d="M322.325 113.151H319.38V111.434H322.325V108.48H324.032V111.434H326.977V113.151H324.032V116.153H322.325V113.151Z" fill="white" stroke="#263238" stroke-width="0.75" stroke-linecap="round" stroke-linejoin="round"/>
<path d="M238.318 73.3892H220.317C213.272 73.3892 207.561 79.1006 207.561 86.146V104.146C207.561 111.192 213.272 116.903 220.317 116.903H238.318C245.363 116.903 251.075 111.192 251.075 104.146V86.146C251.075 79.1006 245.363 73.3892 238.318 73.3892Z" fill="#6D0ABC" stroke="#263238" stroke-width="0.75" stroke-linecap="round" stroke-linejoin="round"/>
<path d="M216.237 99.7282V90.564C216.237 87.9282 217.607 86.3711 220.186 86.3711C222.766 86.3711 224.182 87.9282 224.182 90.564V92.3649H221.649V90.3857C221.649 89.2695 221.105 88.8099 220.308 88.8099C219.511 88.8099 218.967 89.2695 218.967 90.3857V99.9158C218.967 101.041 219.501 101.482 220.308 101.482C221.115 101.482 221.649 101.041 221.649 99.9158V97.3082H224.182V99.7282C224.182 102.355 222.813 103.912 220.233 103.912C217.654 103.912 216.237 102.355 216.237 99.7282Z" fill="white" stroke="#263238" stroke-width="0.75" stroke-linecap="round" stroke-linejoin="round"/>
<path d="M225.336 99.625V98.687H227.868V99.8595C227.868 101.079 228.403 101.52 229.257 101.52C230.11 101.52 230.645 101.079 230.645 99.8126C230.645 98.3962 230.11 97.4957 228.356 95.9574C226.114 93.9876 225.383 92.5994 225.383 90.6483C225.383 87.9656 226.771 86.4086 229.378 86.4086C231.986 86.4086 233.281 87.9656 233.281 90.6952V91.3987H230.748V90.5264C230.748 89.307 230.26 88.8474 229.407 88.8474C228.553 88.8474 228.075 89.307 228.075 90.4795C228.075 91.652 228.628 92.6181 230.382 94.1564C232.624 96.1262 233.337 97.4957 233.337 99.6156C233.337 102.43 231.92 103.949 229.285 103.949C226.649 103.949 225.336 102.355 225.336 99.625Z" fill="white" stroke="#263238" stroke-width="0.75" stroke-linecap="round" stroke-linejoin="round"/>
<path d="M234.406 99.625V98.687H236.939V99.8595C236.939 101.079 237.474 101.52 238.327 101.52C239.181 101.52 239.715 101.079 239.715 99.8126C239.715 98.3962 239.181 97.4957 237.427 95.9574C235.185 93.9876 234.453 92.5994 234.453 90.6483C234.453 87.9656 235.841 86.4086 238.449 86.4086C241.057 86.4086 242.351 87.9656 242.351 90.6952V91.3987H239.809V90.5264C239.809 89.307 239.321 88.8474 238.468 88.8474C237.614 88.8474 237.136 89.307 237.136 90.4795C237.136 91.652 237.689 92.6181 239.443 94.1564C241.685 96.1262 242.398 97.4957 242.398 99.6156C242.398 102.43 240.982 103.949 238.346 103.949C235.71 103.949 234.406 102.355 234.406 99.625Z" fill="white" stroke="#263238" stroke-width="0.75" stroke-linecap="round" stroke-linejoin="round"/>
<path d="M386.665 159.037C389.21 148.364 382.62 137.649 371.947 135.105C361.274 132.56 350.559 139.15 348.015 149.823C345.47 160.496 352.059 171.211 362.732 173.755C373.405 176.3 384.12 169.71 386.665 159.037Z" fill="#6D0ABC"/>
<mask id="mask4_76_18" style="mask-type:luminance" maskUnits="userSpaceOnUse" x="347" y="134" width="41" height="41">
<path d="M386.665 159.037C389.21 148.364 382.62 137.649 371.947 135.105C361.274 132.56 350.559 139.15 348.015 149.823C345.47 160.496 352.059 171.211 362.732 173.755C373.405 176.3 384.12 169.71 386.665 159.037Z" fill="white"/>
</mask>
<g mask="url(#mask4_76_18)">
<path opacity="0.3" d="M386.665 159.037C389.21 148.364 382.62 137.649 371.947 135.105C361.274 132.56 350.559 139.15 348.015 149.823C345.47 160.496 352.059 171.211 362.732 173.755C373.405 176.3 384.12 169.71 386.665 159.037Z" fill="white"/>
</g>
<path d="M386.665 159.037C389.21 148.364 382.62 137.649 371.947 135.105C361.274 132.56 350.559 139.15 348.015 149.823C345.47 160.496 352.059 171.211 362.732 173.755C373.405 176.3 384.12 169.71 386.665 159.037Z" stroke="#263238" stroke-width="0.75" stroke-linecap="round" stroke-linejoin="round"/>
<path d="M359.507 158.363V150.474C359.507 148.213 360.68 146.872 362.903 146.872C365.126 146.872 366.298 148.213 366.298 150.474V152.031H364.122V150.333C364.122 149.395 363.653 148.964 362.969 148.964C362.284 148.964 361.815 149.367 361.815 150.333V158.522C361.815 159.46 362.274 159.863 362.969 159.863C363.663 159.863 364.122 159.488 364.122 158.522V156.28H366.298V158.353C366.298 160.614 365.126 161.955 362.903 161.955C360.68 161.955 359.507 160.623 359.507 158.363Z" fill="white" stroke="#263238" stroke-width="0.75" stroke-linecap="round" stroke-linejoin="round"/>
<path d="M368.193 157.584H367.161L367.33 155.952H368.362L368.756 152.115H367.696L367.865 150.474H368.915L369.272 147.097H371.092L370.735 150.474H372.227L372.583 147.097H374.412L374.056 150.474H375.125L374.956 152.115H373.887L373.484 155.952H374.553L374.384 157.584H373.324L372.883 161.777H371.063L371.504 157.584H370.013L369.572 161.777H367.752L368.193 157.584ZM371.673 155.952L372.067 152.115H370.585L370.182 155.952H371.673Z" fill="white" stroke="#263238" stroke-width="0.75" stroke-linecap="round" stroke-linejoin="round"/>
<path d="M132.474 383.182H128.994L128.056 245.052H132.474V383.182Z" fill="#858585" stroke="#263238" stroke-linecap="round" stroke-linejoin="round"/>
<path d="M135.944 383.182H132.474V245.052H136.882L135.944 383.182Z" fill="#999999" stroke="#263238" stroke-linecap="round" stroke-linejoin="round"/>
<path d="M331.105 236.601H92.6556V245.062H331.105V236.601Z" fill="#263238" stroke="#263238" stroke-linecap="round" stroke-linejoin="round"/>
<path d="M380.931 236.601H327.54V245.062H380.931V236.601Z" fill="#858585" stroke="#263238" stroke-linecap="round" stroke-linejoin="round"/>
<path d="M341.92 245.052H104.868V258.991H341.92V245.052Z" fill="#6D0ABC" stroke="#263238" stroke-miterlimit="10"/>
<path d="M341.92 259.001H369.525V245.062H341.92V259.001Z" fill="#6D0ABC"/>
<mask id="mask5_76_18" style="mask-type:luminance" maskUnits="userSpaceOnUse" x="341" y="245" width="29" height="15">
<path d="M341.92 259.001H369.525V245.062H341.92V259.001Z" fill="white"/>
</mask>
<g mask="url(#mask5_76_18)">
<path opacity="0.3" d="M341.92 259.001H369.525V245.062H341.92V259.001Z" fill="black"/>
</g>
<path d="M341.92 259.001H369.525V245.062H341.92V259.001Z" stroke="#263238" stroke-miterlimit="10"/>
<path d="M341.92 383.182H338.449L337.511 245.052H341.92V383.182Z" fill="#858585" stroke="#263238" stroke-linecap="round" stroke-linejoin="round"/>
<path d="M345.4 383.182H341.92V245.052H346.338L345.4 383.182Z" fill="#999999" stroke="#263238" stroke-linecap="round" stroke-linejoin="round"/>
<path d="M104.868 383.182H101.388L100.45 245.052H104.868V383.182Z" fill="#858585" stroke="#263238" stroke-linecap="round" stroke-linejoin="round"/>
<path d="M108.339 383.182H104.868V245.052H109.277L108.339 383.182Z" fill="#999999" stroke="#263238" stroke-linecap="round" stroke-linejoin="round"/>
<path d="M369.525 383.182H366.045L365.107 245.052H369.525V383.182Z" fill="#858585" stroke="#263238" stroke-linecap="round" stroke-linejoin="round"/>
<path d="M372.996 383.182H369.525V245.052H373.934L372.996 383.182Z" fill="#999999" stroke="#263238" stroke-linecap="round" stroke-linejoin="round"/>
<path d="M246.741 235.663H218.798C218.523 235.661 218.261 235.55 218.068 235.355C217.875 235.16 217.766 234.896 217.766 234.622V232.314L247.782 233.252V234.622C247.782 234.898 247.672 235.163 247.477 235.358C247.282 235.553 247.017 235.663 246.741 235.663Z" fill="#858585" stroke="#263238" stroke-linecap="round" stroke-linejoin="round"/>
<path d="M214.642 235.663H158.466C158.003 235.646 157.558 235.486 157.19 235.206C156.822 234.925 156.55 234.538 156.411 234.097L144.349 194.945C144.258 194.716 144.226 194.469 144.255 194.225C144.284 193.981 144.374 193.748 144.515 193.547C144.656 193.346 144.846 193.183 145.065 193.074C145.285 192.964 145.529 192.911 145.775 192.918H201.951C202.413 192.934 202.858 193.092 203.226 193.371C203.594 193.649 203.866 194.035 204.006 194.476L216.068 233.628C216.158 233.857 216.19 234.104 216.161 234.349C216.132 234.593 216.042 234.826 215.901 235.028C215.76 235.229 215.571 235.393 215.352 235.504C215.132 235.615 214.888 235.669 214.642 235.663Z" fill="#999999" stroke="#263238" stroke-linecap="round" stroke-linejoin="round"/>
<path d="M218.554 233.628L206.491 194.476C206.352 194.035 206.08 193.649 205.712 193.371C205.344 193.092 204.898 192.934 204.437 192.918H201.951C202.413 192.934 202.858 193.092 203.226 193.371C203.594 193.649 203.866 194.035 204.006 194.476L216.068 233.628C216.158 233.857 216.19 234.104 216.161 234.349C216.132 234.593 216.043 234.826 215.901 235.028C215.76 235.229 215.571 235.393 215.352 235.504C215.132 235.614 214.889 235.669 214.643 235.663H217.166C217.409 235.663 217.648 235.604 217.862 235.49C218.077 235.377 218.261 235.213 218.397 235.012C218.534 234.811 218.62 234.581 218.647 234.339C218.675 234.098 218.643 233.854 218.554 233.628Z" fill="#858585" stroke="#263238" stroke-linecap="round" stroke-linejoin="round"/>
<path d="M183.689 214.286C183.757 214.722 183.73 215.168 183.607 215.592C183.485 216.016 183.27 216.408 182.979 216.74C182.688 217.072 182.328 217.336 181.924 217.513C181.52 217.691 181.081 217.777 180.64 217.766C179.683 217.742 178.765 217.379 178.051 216.742C177.336 216.105 176.871 215.234 176.738 214.286C176.669 213.851 176.697 213.405 176.819 212.981C176.942 212.558 177.156 212.166 177.447 211.835C177.738 211.504 178.099 211.241 178.503 211.064C178.907 210.888 179.346 210.803 179.786 210.816C180.742 210.841 181.657 211.203 182.371 211.838C183.085 212.473 183.552 213.34 183.689 214.286Z" fill="white" stroke="#263238" stroke-linecap="round" stroke-linejoin="round"/>
</svg>
