<svg xmlns="http://www.w3.org/2000/svg" viewBox="0 0 1415 726" preserveAspectRatio="xMidYMid" width="1415" height="726" xmlns:xlink="http://www.w3.org/1999/xlink" style="shape-rendering:auto;display:block;background-position-x:0%;background-position-y:0%;background-size:auto;background-origin:padding-box;background-clip:border-box;background:scroll rgba(0, 0, 0, 0) none  repeat;width:1415px;height:726px;;animation:none"><g style="transform:matrix(-1, 0, 0, 1, 1415, 0);;animation:none"><linearGradient y2="1" y1="0" x2="0" x1="0" id="lg-b5mlp07jzv7"><stop offset="0" stop-color="#5324c6"></stop>

  
<stop offset="1" stop-color="#840fbe"></stop></linearGradient>
<path opacity="0.4" fill="url(#lg-b5mlp07jzv7)" d="M 0 0 L 972.09 0 Q 711.53 90.75 674.11 181.5 T 416.11 363 T 23.12 544.5 T -170.2 726 L 0 726 Z" style="fill:url('#lg-b5mlp07jzv7');opacity:0.4;;animation:none"></path>
<path opacity="0.4" fill="url(#lg-b5mlp07jzv7)" d="M 0 0 L 976.581 0 Q 730.525 90.75 689.97 181.5 T 419.177 363 T 83.9578 544.5 T -252.357 726 L 0 726 Z" style="fill:url('#lg-b5mlp07jzv7');opacity:0.4;;animation:none"></path>
<path opacity="0.4" fill="url(#lg-b5mlp07jzv7)" d="M 0 0 L 1022.3 0 Q 721.715 90.75 705.495 181.5 T 349.9 363 T 92.82 544.5 T -265.075 726 L 0 726 Z" style="fill:url('#lg-b5mlp07jzv7');opacity:0.4;;animation:none"></path>
<path opacity="0.4" fill="url(#lg-b5mlp07jzv7)" d="M 0 0 L 1029.34 0 Q 734.505 90.75 701.901 181.5 T 342.602 363 T -52.2058 544.5 T -351.421 726 L 0 726 Z" style="fill:url('#lg-b5mlp07jzv7');opacity:0.4;;animation:none"></path>
<g></g></g><!-- [ldio] generated by https://loading.io --></svg>