<svg xmlns="http://www.w3.org/2000/svg" viewBox="0 0 1512 1099" preserveAspectRatio="xMidYMid" width="1512" height="1099" xmlns:xlink="http://www.w3.org/1999/xlink" style="shape-rendering:auto;display:block;background-position-x:0%;background-position-y:0%;background-size:auto;background-origin:padding-box;background-clip:border-box;background:scroll rgba(0, 0, 0, 0) none  repeat;width:1512px;height:1099px;;animation:none"><g style="transform:matrix(-1, 0, 0, 1, 1512, 0);;animation:none"><linearGradient y2="1" y1="0" x2="0" x1="0" id="lg-np1ib3cfmh"><stop offset="0" stop-color="#5324c6"></stop>

  
<stop offset="1" stop-color="#840fbe"></stop></linearGradient>
<path opacity="0.4" fill="url(#lg-np1ib3cfmh)" d="M 0 0 L 1563.14 0 Q 1046.89 137.38 1033.4 274.75 T 566.39 549.5 T 90.36 824.25 T -456.47 1099 L 0 1099 Z" style="fill:url('#lg-np1ib3cfmh');opacity:0.4;;animation:none"></path>
<path opacity="0.4" fill="url(#lg-np1ib3cfmh)" d="M 0 0 L 1617.69 0 Q 1023.55 137.38 994.85 274.75 T 555.709 549.5 T 26.5842 824.25 T -444.972 1099 L 0 1099 Z" style="fill:url('#lg-np1ib3cfmh');opacity:0.4;;animation:none"></path>
<path opacity="0.4" fill="url(#lg-np1ib3cfmh)" d="M 0 0 L 1602.54 0 Q 1097.75 137.38 1075.1 274.75 T 528.06 549.5 T 35.845 824.25 T -431.565 1099 L 0 1099 Z" style="fill:url('#lg-np1ib3cfmh');opacity:0.4;;animation:none"></path>
<path opacity="0.4" fill="url(#lg-np1ib3cfmh)" d="M 0 0 L 1492.32 0 Q 1091.73 137.38 1069.29 274.75 T 601.079 549.5 T 140.705 824.25 T -442.768 1099 L 0 1099 Z" style="fill:url('#lg-np1ib3cfmh');opacity:0.4;;animation:none"></path>
<g></g></g><!-- [ldio] generated by https://loading.io --></svg>